<?xml version="1.0" encoding="UTF-8" standalone="no"?>
<svg
   xmlns:dc="http://purl.org/dc/elements/1.1/"
   xmlns:cc="http://creativecommons.org/ns#"
   xmlns:rdf="http://www.w3.org/1999/02/22-rdf-syntax-ns#"
   xmlns:svg="http://www.w3.org/2000/svg"
   xmlns="http://www.w3.org/2000/svg"
   xml:space="preserve"
   enable-background="new 0 0 200 200"
   viewBox="0 0 200 200"
   y="0px"
   x="0px"
   id="Layer_1"
   version="1.1"><metadata
     id="metadata13"><rdf:RDF><cc:Work
         rdf:about=""><dc:format>image/svg+xml</dc:format><dc:type
           rdf:resource="http://purl.org/dc/dcmitype/StillImage" /></cc:Work></rdf:RDF></metadata><defs
     id="defs11" /><circle
     id="circle2"
     fill="#f2f5f3"
     r="77.8"
     cy="100"
     cx="100" /><g
     id="g6"
     transform="matrix(0.7,0,0,0.7,30,30)"><path
       style="fill:#454e46"
       id="path4"
       d="M 154.34595,55.405406 C 141.97838,41.135135 126.28108,34 107.72973,34 c -12.367566,0 -23.545944,2.854054 -33.297296,8.562162 -9.989189,5.708109 -17.6,13.556757 -23.07027,23.545947 -5.47027,9.989189 -8.086487,21.405405 -8.086487,34.010811 0,12.36757 2.616217,23.78378 8.324325,33.77297 5.708108,9.98919 13.556757,17.83784 23.545946,23.54595 C 85.135137,163.14595 96.313516,166 108.91892,166 c 17.12433,0 31.3946,-5.23243 42.81081,-15.93513 1.90271,-1.90271 2.85406,-4.04325 2.85406,-6.42163 0,-3.09189 -1.66487,-5.94594 -4.51892,-8.56216 -1.90271,-1.42702 -4.04325,-2.14054 -6.18379,-2.14054 -2.85405,0 -5.94594,1.18919 -8.8,3.32973 -6.65946,5.70811 -15.45946,8.32433 -26.16216,8.32433 -8.32432,0 -15.697296,-1.90271 -22.118918,-5.70811 -6.421622,-3.80541 -11.416216,-9.03784 -14.983784,-15.6973 -3.567568,-6.65946 -5.232432,-14.50811 -5.232432,-23.07027 0,-13.318919 3.805405,-24.25946 11.416216,-32.345947 7.610811,-8.086486 17.362162,-12.367567 29.729728,-12.367567 5.94595,0 11.17838,1.189189 15.93514,3.091892 4.75675,1.902702 9.03784,4.994594 13.08108,9.275675 2.37838,2.854055 5.47027,4.281082 9.27567,4.281082 1.90271,0 3.80541,-0.475676 5.47027,-1.664865 3.32973,-2.378379 5.23244,-5.232433 5.23244,-8.8 0,-2.378379 -0.95135,-4.281082 -2.37838,-6.183784 z" /></g></svg>